<svg t="1706009309939" class="icon" viewBox="0 0 1024 1024" version="1.1" xmlns="http://www.w3.org/2000/svg" p-id="13525" width="200" height="200" style="background: transparent;"><path d="M470.81 114.19c-34.84-5.41-66.12 16-86 44.87a406.5 406.5 0 0 1-16.21-44.88c-3.64-12.31-18.85-19.69-30.33-12.34-27.07 17.36-21.67 57.48-15.1 91.49-41.7-6.07-98.44-5.14-99.44 39.79A20.7 20.7 0 0 0 233.92 251c9.06 5.38 15.28 3.86 25.54 4.27 31.15 1.22 56.61 4.21 73 34.08 12.28 22.35 45.5 4.09 36.85-18l51.4-20.56c10.71 21.82 47.86 11.15 38.8-13-13.35-35.62 4-64.39 23.6-93.13 6.96-10.3 0.48-28.48-12.3-30.47z" fill="#39B54A" p-id="13526"></path><path d="M730.75 725.62a1933 1933 0 0 0-31.18-241.52c-12-62-25.85-145.78-70.82-194-92.28-99-266.34-58.59-339.59 40.19a22.64 22.64 0 0 0-3 4 22 22 0 0 0-2.37 4.31c-73.39 130.78 32.1 251.54 114.59 349.07 37.17 43.95 79.36 84.64 120 125.33 38.08 38.16 98.16 103.6 153.15 114.38C746.47 942 734 776.93 730.75 725.62z" fill="#FBB03B" p-id="13527"></path><path d="M340.95 566.22a431.76 431.76 0 0 1 87.66-46.14c24.67-9.5 12.18-48.88-12.71-39.3a479.86 479.86 0 0 0-97.33 50.74c-21.95 14.9 0.32 49.68 22.39 34.7zM422 658a468.11 468.11 0 0 1 102.6-56.62c24.55-9.73 12.08-49.12-12.71-39.3a512.23 512.23 0 0 0-112.26 61.24c-21.43 15.52 0.78 50.35 22.39 34.7zM523.62 757.52a502.09 502.09 0 0 1 69.76-36.44c24.25-10.27 11.83-49.69-12.71-39.3a571.13 571.13 0 0 0-79.43 41c-22.55 14.05-0.22 48.79 22.39 34.7z" fill="#F7931E" p-id="13528"></path><path d="M522.07 331.85c27.05 4.34 47 27.94 56.82 52.85 9.6 24.45 49.55 13.81 39.82-11C604 336.26 574.81 298.73 533 292c-26-4.17-37.19 35.61-11 39.82z" fill="#FFFFFF" p-id="13529"></path><path d="M225.06 240.46a42.31 42.31 0 0 1 10.09-7.3 44.83 44.83 0 0 1 16.41-4.63c20.75-2.26 41.8 2.9 41.8 2.9 13.84 3.39 30.85 7.56 46.74 21.79a84.71 84.71 0 0 1 15.17 18c-5 3-10.17 6.37-15.47 10.12q-4.34 3.08-8.31 6.15a62.32 62.32 0 0 0-8.49-11.58 55.52 55.52 0 0 0-8.8-7.86c-6.23-4.43-11.86-6.26-17.16-7.93a97.16 97.16 0 0 0-24-4.37c-11.34-0.57-21.56-0.51-21.56-0.51a36.75 36.75 0 0 1-8.41-0.83 27.55 27.55 0 0 1-9.21-3.45 23.81 23.81 0 0 1-8.8-10.5z" fill="#009245" p-id="13530"></path><path d="M259.16 433.61A223.49 223.49 0 0 1 326 474.89c35.94 32.42 42.7 60.93 83.44 128.18 18.17 30 32.76 50.38 61.94 91.19 20.57 28.76 56.17 78.54 95.49 123 14 15.89 22.17 23.87 42.15 47.31 12.23 14.35 18.38 22.15 29.25 32.69a261.55 261.55 0 0 0 38.24 30.68 127.86 127.86 0 0 1-17.94-4.15c-10.48-3.24-22.53-8.44-40.95-20.94a297.38 297.38 0 0 1-33.92-26.67c-50.67-47.1-95.23-93.27-114.9-113.55-37.47-38.64-33.38-33.7-45.47-46.76-39.84-43-66.47-77.54-75.39-89.25C311.73 579 293.92 555 279.43 518.35a310.52 310.52 0 0 1-20.27-84.74z" fill="#F48D40" p-id="13531"></path><path d="M601 433.22a118 118 0 0 1 5.84 17.78c2.66 10.83 14.86 17.31 25.4 14.42 11-3 17.08-14.53 14.42-25.4a118 118 0 0 0-5.89-17.81c-4.33-10.27-13.65-17.65-25.4-14.42-9.68 2.66-18.78 15.05-14.42 25.4z" fill="#FFFFFF" p-id="13532"></path></svg>